<?xml version="1.0" encoding="UTF-8"?>
<svg width="22px" height="24px" viewBox="0 0 22 24" version="1.1" xmlns="http://www.w3.org/2000/svg" xmlns:xlink="http://www.w3.org/1999/xlink">
    <!-- Generator: Sketch 55.2 (78181) - https://sketchapp.com -->
    <title>图标/报名系统/选</title>
    <desc>Created with Sketch.</desc>
    <g id="组件" stroke="none" stroke-width="1" fill="none" fill-rule="evenodd">
        <g id="图标/报名系统/选" transform="translate(-10.000000, -2.000000)">
            <g transform="translate(10.000000, 2.000000)">
                <path d="M1.00026127,13.9718135 C0.988524398,16.4497167 1.3722203,18.1181352 2.15134897,18.9770692 C2.93047764,19.8360032 4.77688618,20.1540152 7.69057459,19.9311054 L20,8.58798868 L14.5646283,1 L1.00026127,13.9718135 Z" id="路径-2" fill="#86EFC3"></path>
                <path d="M12.6338158,15.3965334 L19.5953983,8.43117197 C19.8543418,8.17427501 20,7.82453264 20,7.45967563 C20,7.09481862 19.8543418,6.74507625 19.5953983,6.48817928 L14.5089445,1.39450808 C13.9735693,0.868497306 13.1157432,0.868497306 12.5803679,1.39450808 L1.79726416,12.170096 C1.28646686,12.6803771 0.999610028,13.3730554 1,14.095263 L1,18.1327662 C1.00245613,19.1647314 1.83926691,20 2.87067515,20 L6.90598784,20 C7.6255247,20 8.31573918,19.7146944 8.82565646,19.2067599 L10.2197546,17.811905 L6.92825778,14.5141651" id="路径备份" stroke="#636E71" stroke-width="2" stroke-linecap="round" stroke-linejoin="round"></path>
                <path d="M2,23 L17.9132993,23 C19.62476,22.9900482 21.0058552,21.4186551 21,19.4880112 C20.9941075,17.5573673 19.6034833,15.996705 17.8920024,16 C16.1805215,16.0033054 14.7946353,17.5693215 14.7946125,19.4999768" id="路径备份-2" stroke="#636E71" stroke-width="2" stroke-linecap="round" stroke-linejoin="round"></path>
            </g>
        </g>
    </g>
</svg>