<?xml version="1.0" encoding="UTF-8"?>
<svg width="24px" height="24px" viewBox="0 0 24 24" version="1.1"
  xmlns="http://www.w3.org/2000/svg"
  xmlns:xlink="http://www.w3.org/1999/xlink">
  <!-- Generator: Sketch 55.2 (78181) - https://sketchapp.com -->
  <title>图标/已报部门/未</title>
  <desc>Created with Sketch.</desc>
  <g id="组件" stroke="none" stroke-width="1" fill="none" fill-rule="evenodd" stroke-linecap="round" stroke-linejoin="round">
    <g id="图标/已报部门/未" transform="translate(-9.000000, -2.000000)" stroke="#CFD7D5" stroke-width="2">
      <g transform="translate(9.000000, 2.000000)" id="路径">
        <polyline points="5 12.2422303 7.58616715 14 12 11"></polyline>
        <path d="M20,22 L21.4976744,22 C22.3255729,22 22.9974368,21.4119142 23,20.6849992 L23,8.30683971 C22.9923312,7.58152365 22.3191283,6.99772973 21.4930233,7 L21.4930233,7"></path>
        <path d="M16,20.155135 C15.9977402,21.7270118 14.7935319,23 13.3088476,23 L3.69115238,23 C2.20646813,23 1.00225979,21.7270118 1,20.155135 L1,3.84920166 C1,2.27563103 2.20486996,1 3.69115238,1 L13.3088476,1 C14.79513,1 16,2.27563103 16,3.84920166 L16,14.0447467"></path>
      </g>
    </g>
  </g>
</svg>
